{"title":"Canada Di Flight Punjabi 2016 DesiSCR x264-HDF.mp4","uid":15699837,"size":1242247818,"categoryP":"video","categoryS":"movies","magnet":"?xt=urn:btih:d92365d647858ac8ebf1ca081431609b0c14c5b3&amp;dn=Canada+Di+Flight+Punjabi+2016+DesiSCR+x264-HDF.mp4&amp;tr=udp%3A%2F%2Ftracker.leechers-paradise.org%3A6969&amp;tr=udp%3A%2F%2Fzer0day.ch%3A1337&amp;tr=udp%3A%2F%2Fopen.demonii.com%3A1337&amp;tr=udp%3A%2F%2Ftracker.coppersurfer.tk%3A6969&amp;tr=udp%3A%2F%2Fexodus.desync.com%3A6969","seeders":1,"leechers":9,"uploader":null,"files":1,"time":1472464743,"description":"http://www.movierulzfull.in/ presents:\r\n\r\nCanada Di Flight Punjabi 2016 DesiSCR x264-HDF.mp4\r\n\r\nScreens:\r\n \nhttp://extraimago.com/images/2016/08/29/wqTE.png \nhttp://extraimago.com/images/2016/08/29/wqTO.png \nhttp://extraimago.com/images/2016/08/29/wqTS.png \nhttp://extraimago.com/images/2016/08/29/wqTq.png \nhttp://extraimago.com/images/2016/08/29/wqTy.png\r\n\r\nInfo:\r\n\r\nFormat                                   : MPEG-4\r\nFormat profile                           : Base Media\r\nCodec ID                                 : isom (isom/iso2/avc1/mp41)\r\nFile size                                : 1.16 GiB\r\nDuration                                 : 2 h 14 min\r\nOverall bit rate                         : 1 235 kb/s\r\nWriting application                      : Lavf57.20.100\r\n\r\nVideo\r\nID                                       : 1\r\nFormat                                   : AVC\r\nFormat/Info                              : Advanced Video Codec\r\nFormat profile                           :   \r\nFormat settings, CABAC                   : Yes\r\nFormat settings, ReFrames                : 8 frames\r\nCodec ID                                 : avc1\r\nCodec ID/Info                            : Advanced Video Coding\r\nDuration                                 : 2 h 14 min\r\nBit rate                                 : 1 101 kb/s\r\nWidth                                    : 720 pixels\r\nHeight                                   : 304 pixels\r\nDisplay aspect ratio                     : 2.35:1\r\nFrame rate mode                          : Variable\r\nFrame rate                               : 23.976 (24000/1001) FPS\r\nMinimum frame rate                       : 23.564 FPS\r\nMaximum frame rate                       : 24.390 FPS\r\nColor space                              : YUV\r\nChroma subsampling                       : 4:2:0\r\nBit depth                                : 8 bits\r\nScan type                                : Progressive\r\nBits/(Pixel*Frame)                       : 0.210\r\nStream size                              : 1.03 GiB (89%)\r\nWriting library                          : x264 core 148 r2665 a01e339\r\nEncoding settings                        : cabac=1 / ref=8 / deblock=1:0:0 / analyse=0x3:0x133 / me=umh / subme=9 / psy=1 / psy_rd=1.00:0.00 / mixed_ref=1 / me_range=16 / chroma_me=1 / trellis=2 / 8x8dct=1 / cqm=0 / deadzone=21,11 / fast_pskip=0 / chroma_qp_offset=-2 / threads=12 / lookahead_threads=1 / sliced_threads=0 / nr=500 / decimate=1 / interlaced=0 / bluray_compat=0 / constrained_intra=0 / bframes=3 / b_pyramid=2 / b_adapt=2 / b_bias=0 / direct=3 / weightb=1 / open_gop=0 / weightp=2 / keyint=250 / keyint_min=23 / scenecut=40 / intra_refresh=0 / rc_lookahead=60 / rc=2pass / mbtree=1 / bitrate=1101 / ratetol=1.0 / qcomp=0.60 / qpmin=0 / qpmax=69 / qpstep=4 / cplxblur=20.0 / qblur=0.5 / ip_ratio=1.40 / aq=1:1.00\r\nMenus                                    : 3\r\n\r\nAudio\r\nID                                       : 2\r\nFormat                                   : AAC\r\nFormat/Info                              : Advanced Audio Codec\r\nFormat profile                           : LC\r\nCodec ID                                 : 40\r\nDuration                                 : 2 h 14 min\r\nBit rate mode                            : Constant\r\nBit rate                                 : 128 kb/s\r\nChannel(s)                               : 2 channels\r\nChannel positions                        : Front: L R\r\nSampling rate                            : 48.0 kHz\r\nFrame rate                               : 46.875 FPS (1024 spf)\r\nCompression mode                         : Lossy\r\nStream size                              : 123 MiB (10%)\r\nDefault                                  : Yes\r\nAlternate group                          : 1\r\nMenus                                    : 3\r\n\r\nMenu #1\r\nID                                       : 3\r\nCodec ID                                 : text\r\nDuration                                 : 2 h 14 min\r\nLanguage                                 : English\r\nBit rate mode                            : CBR\r\nMenu For                                 : 1,2\r\n00:00:00.000                             : Chapter 01\r\n00:05:35.000                             : Chapter 02\r\n00:07:51.500                             : Chapter 03\r\n00:20:34.000                             : Chapter 04\r\n00:22:33.000                             : Chapter 05\r\n00:34:32.500                             : Chapter 06\r\n00:37:10.000                             : Chapter 07\r\n00:55:07.000                             : Chapter 08\r\n01:09:43.000                             : Chapter 09\r\n01:13:16.000                             : Chapter 10\r\n01:32:16.500                             : Chapter 11\r\n01:34:29.500                             : Chapter 12\r\n01:45:25.500                             : Chapter 13\r\n01:48:32.500                             : Chapter 14\r\n01:50:46.500                             : Chapter 15\r\n01:52:45.500                             : Chapter 16\r\n02:03:12.000                             : Chapter 17\r\n02:10:47.000                             : Chapter 18\r\n\r\nMenu #2\r\n00:00:00.000                             : Chapter 01\r\n00:05:35.000                             : Chapter 02\r\n00:07:51.500                             : Chapter 03\r\n00:20:34.000                             : Chapter 04\r\n00:22:33.000                             : Chapter 05\r\n00:34:32.500                             : Chapter 06\r\n00:37:10.000                             : Chapter 07\r\n00:55:07.000                             : Chapter 08\r\n01:09:43.000                             : Chapter 09\r\n01:13:16.000                             : Chapter 10\r\n01:32:16.500                             : Chapter 11\r\n01:34:29.500                             : Chapter 12\r\n01:45:25.500                             : Chapter 13\r\n01:48:32.500                             : Chapter 14\r\n01:50:46.500                             : Chapter 15\r\n01:52:45.500                             : Chapter 16\r\n02:03:12.000                             : Chapter 17\r\n02:10:47.000                             : Chapter 18 \r\n \nhttp://www.movierulzfull.in/canada-di-flight-full-movie-watch/\r\n \nhttp://tvmoviereviews.drupalgardens.com/content/canada-di-flight-review","torrent":{"xt":"urn:btih:d92365d647858ac8ebf1ca081431609b0c14c5b3","amp;dn":"Canada+Di+Flight+Punjabi+2016+DesiSCR+x264-HDF.mp4","amp;tr":["udp%3A%2F%2Ftracker.leechers-paradise.org%3A6969","udp%3A%2F%2Fzer0day.ch%3A1337","udp%3A%2F%2Fopen.demonii.com%3A1337","udp%3A%2F%2Ftracker.coppersurfer.tk%3A6969","udp%3A%2F%2Fexodus.desync.com%3A6969"],"infoHash":"d92365d647858ac8ebf1ca081431609b0c14c5b3","infoHashBuffer":{"type":"Buffer","data":[217,35,101,214,71,133,138,200,235,241,202,8,20,49,96,155,12,20,197,179]},"announce":[],"urlList":[]}}